<mxfile host="app.diagrams.net" modified="2024-05-19T13:24:53.988Z" agent="Mozilla/5.0 (Windows NT 10.0; Win64; x64; rv:126.0) Gecko/20100101 Firefox/126.0" etag="BLB8gA0STM6enmXS4-Hq" version="24.4.4" type="device">
  <diagram name="第 1 页" id="duQrCIHiaqTd_Oi0UtJW">
    <mxGraphModel dx="3089" dy="19" grid="1" gridSize="10" guides="1" tooltips="1" connect="1" arrows="1" fold="1" page="1" pageScale="1" pageWidth="827" pageHeight="1169" math="0" shadow="0">
      <root>
        <mxCell id="0" />
        <mxCell id="1" parent="0" />
        <mxCell id="gI9t6yz1Oa0XXFwcf4oz-1" value="Project" style="swimlane;fontStyle=0;childLayout=stackLayout;horizontal=1;startSize=26;fillColor=none;horizontalStack=0;resizeParent=1;resizeParentMax=0;resizeLast=0;collapsible=1;marginBottom=0;whiteSpace=wrap;html=1;fontSize=13;" parent="1" vertex="1">
          <mxGeometry x="-760" y="1178" width="320" height="344" as="geometry" />
        </mxCell>
        <mxCell id="gI9t6yz1Oa0XXFwcf4oz-2" value="+ Pid:str" style="text;strokeColor=none;fillColor=none;align=left;verticalAlign=top;spacingLeft=4;spacingRight=4;overflow=hidden;rotatable=0;points=[[0,0.5],[1,0.5]];portConstraint=eastwest;whiteSpace=wrap;html=1;fontSize=13;" parent="gI9t6yz1Oa0XXFwcf4oz-1" vertex="1">
          <mxGeometry y="26" width="320" height="26" as="geometry" />
        </mxCell>
        <mxCell id="gI9t6yz1Oa0XXFwcf4oz-3" value="+ CreatorUid:str" style="text;strokeColor=none;fillColor=none;align=left;verticalAlign=top;spacingLeft=4;spacingRight=4;overflow=hidden;rotatable=0;points=[[0,0.5],[1,0.5]];portConstraint=eastwest;whiteSpace=wrap;html=1;fontSize=13;" parent="gI9t6yz1Oa0XXFwcf4oz-1" vertex="1">
          <mxGeometry y="52" width="320" height="26" as="geometry" />
        </mxCell>
        <mxCell id="gI9t6yz1Oa0XXFwcf4oz-4" value="+ CreateDate:date" style="text;strokeColor=none;fillColor=none;align=left;verticalAlign=top;spacingLeft=4;spacingRight=4;overflow=hidden;rotatable=0;points=[[0,0.5],[1,0.5]];portConstraint=eastwest;whiteSpace=wrap;html=1;fontSize=13;" parent="gI9t6yz1Oa0XXFwcf4oz-1" vertex="1">
          <mxGeometry y="78" width="320" height="26" as="geometry" />
        </mxCell>
        <mxCell id="gI9t6yz1Oa0XXFwcf4oz-5" value="+ IsPrivate:bool" style="text;whiteSpace=wrap;html=1;fontFamily=Helvetica;fontSize=13;fontColor=default;spacingLeft=4;" parent="gI9t6yz1Oa0XXFwcf4oz-1" vertex="1">
          <mxGeometry y="104" width="320" height="30" as="geometry" />
        </mxCell>
        <mxCell id="gI9t6yz1Oa0XXFwcf4oz-6" value="+ SeenInBrowser:bool" style="text;whiteSpace=wrap;html=1;fontFamily=Helvetica;fontSize=13;fontColor=default;spacingLeft=4;" parent="gI9t6yz1Oa0XXFwcf4oz-1" vertex="1">
          <mxGeometry y="134" width="320" height="30" as="geometry" />
        </mxCell>
        <mxCell id="gI9t6yz1Oa0XXFwcf4oz-8" value="+ IsReadOnly:bool" style="text;whiteSpace=wrap;html=1;fontFamily=Helvetica;fontSize=13;fontColor=default;spacingLeft=4;" parent="gI9t6yz1Oa0XXFwcf4oz-1" vertex="1">
          <mxGeometry y="164" width="320" height="30" as="geometry" />
        </mxCell>
        <mxCell id="gI9t6yz1Oa0XXFwcf4oz-14" value="+ ProjectTitle:str" style="text;whiteSpace=wrap;html=1;fontFamily=Helvetica;fontSize=13;fontColor=default;spacingLeft=4;" parent="gI9t6yz1Oa0XXFwcf4oz-1" vertex="1">
          <mxGeometry y="194" width="320" height="30" as="geometry" />
        </mxCell>
        <mxCell id="gI9t6yz1Oa0XXFwcf4oz-13" value="+ ProjectDesc:markdown" style="text;whiteSpace=wrap;html=1;fontFamily=Helvetica;fontSize=13;fontColor=default;spacingLeft=4;" parent="gI9t6yz1Oa0XXFwcf4oz-1" vertex="1">
          <mxGeometry y="224" width="320" height="30" as="geometry" />
        </mxCell>
        <mxCell id="gI9t6yz1Oa0XXFwcf4oz-81" value="+ ProjectIcon:image" style="text;whiteSpace=wrap;html=1;fontFamily=Helvetica;fontSize=13;fontColor=default;spacingLeft=4;" parent="gI9t6yz1Oa0XXFwcf4oz-1" vertex="1">
          <mxGeometry y="254" width="320" height="30" as="geometry" />
        </mxCell>
        <mxCell id="gI9t6yz1Oa0XXFwcf4oz-11" value="+ Members:Pair&amp;lt;ProjectPermissionGroup,str&amp;gt;" style="text;whiteSpace=wrap;html=1;fontFamily=Helvetica;fontSize=13;fontColor=default;spacingLeft=4;" parent="gI9t6yz1Oa0XXFwcf4oz-1" vertex="1">
          <mxGeometry y="284" width="320" height="30" as="geometry" />
        </mxCell>
        <mxCell id="gI9t6yz1Oa0XXFwcf4oz-10" value="+ DefaultPermissionGroup:ProjectPermissionGroup" style="text;whiteSpace=wrap;html=1;fontFamily=Helvetica;fontSize=13;fontColor=default;spacingLeft=4;" parent="gI9t6yz1Oa0XXFwcf4oz-1" vertex="1">
          <mxGeometry y="314" width="320" height="30" as="geometry" />
        </mxCell>
        <mxCell id="gI9t6yz1Oa0XXFwcf4oz-74" value="ModuleProjectManagement" style="swimlane;fontStyle=0;childLayout=stackLayout;horizontal=1;startSize=26;fillColor=none;horizontalStack=0;resizeParent=1;resizeParentMax=0;resizeLast=0;collapsible=1;marginBottom=0;whiteSpace=wrap;html=1;fontSize=13;" parent="1" vertex="1">
          <mxGeometry x="-760" y="1920" width="290" height="314" as="geometry" />
        </mxCell>
        <mxCell id="gI9t6yz1Oa0XXFwcf4oz-75" value="Subclass:MemberAudition" style="text;strokeColor=none;fillColor=none;align=left;verticalAlign=top;spacingLeft=4;spacingRight=4;overflow=hidden;rotatable=0;points=[[0,0.5],[1,0.5]];portConstraint=eastwest;whiteSpace=wrap;html=1;fontSize=13;" parent="gI9t6yz1Oa0XXFwcf4oz-74" vertex="1">
          <mxGeometry y="26" width="290" height="26" as="geometry" />
        </mxCell>
        <mxCell id="gI9t6yz1Oa0XXFwcf4oz-76" value="+ WaitForAuditList:str[]" style="text;strokeColor=none;fillColor=none;align=left;verticalAlign=top;spacingLeft=4;spacingRight=4;overflow=hidden;rotatable=0;points=[[0,0.5],[1,0.5]];portConstraint=eastwest;whiteSpace=wrap;html=1;fontSize=13;" parent="gI9t6yz1Oa0XXFwcf4oz-74" vertex="1">
          <mxGeometry y="52" width="290" height="26" as="geometry" />
        </mxCell>
        <mxCell id="gI9t6yz1Oa0XXFwcf4oz-77" value="+ AuditionList:Pair&amp;lt;str,str&amp;gt;[]" style="text;strokeColor=none;fillColor=none;align=left;verticalAlign=top;spacingLeft=4;spacingRight=4;overflow=hidden;rotatable=0;points=[[0,0.5],[1,0.5]];portConstraint=eastwest;whiteSpace=wrap;html=1;fontSize=13;" parent="gI9t6yz1Oa0XXFwcf4oz-74" vertex="1">
          <mxGeometry y="78" width="290" height="26" as="geometry" />
        </mxCell>
        <mxCell id="gI9t6yz1Oa0XXFwcf4oz-78" value="Subclass:MemberManagement" style="text;whiteSpace=wrap;html=1;fontFamily=Helvetica;fontSize=13;fontColor=default;spacingLeft=4;" parent="gI9t6yz1Oa0XXFwcf4oz-74" vertex="1">
          <mxGeometry y="104" width="290" height="30" as="geometry" />
        </mxCell>
        <mxCell id="gI9t6yz1Oa0XXFwcf4oz-79" value="+ MemberBlackList:str[]" style="text;whiteSpace=wrap;html=1;fontFamily=Helvetica;fontSize=13;fontColor=default;spacingLeft=4;" parent="gI9t6yz1Oa0XXFwcf4oz-74" vertex="1">
          <mxGeometry y="134" width="290" height="30" as="geometry" />
        </mxCell>
        <mxCell id="GkcXhDEHEu3UvXluwhEP-1" value="Subclass:Workflow" style="text;whiteSpace=wrap;html=1;fontFamily=Helvetica;fontSize=13;fontColor=default;spacingLeft=4;" parent="gI9t6yz1Oa0XXFwcf4oz-74" vertex="1">
          <mxGeometry y="164" width="290" height="30" as="geometry" />
        </mxCell>
        <mxCell id="GkcXhDEHEu3UvXluwhEP-3" value="+ ProjectWorkFlow:AbstractWorkFlowElement[]" style="text;whiteSpace=wrap;html=1;fontFamily=Helvetica;fontSize=13;fontColor=default;spacingLeft=4;" parent="gI9t6yz1Oa0XXFwcf4oz-74" vertex="1">
          <mxGeometry y="194" width="290" height="30" as="geometry" />
        </mxCell>
        <mxCell id="GkcXhDEHEu3UvXluwhEP-14" value="+ CurrentWorkFlow:int" style="text;whiteSpace=wrap;html=1;fontFamily=Helvetica;fontSize=13;fontColor=default;spacingLeft=4;" parent="gI9t6yz1Oa0XXFwcf4oz-74" vertex="1">
          <mxGeometry y="224" width="290" height="30" as="geometry" />
        </mxCell>
        <mxCell id="GkcXhDEHEu3UvXluwhEP-2" value="+ ProofreadTime:int" style="text;whiteSpace=wrap;html=1;fontFamily=Helvetica;fontSize=13;fontColor=default;spacingLeft=4;" parent="gI9t6yz1Oa0XXFwcf4oz-74" vertex="1">
          <mxGeometry y="254" width="290" height="30" as="geometry" />
        </mxCell>
        <mxCell id="GkcXhDEHEu3UvXluwhEP-15" value="+ AllowSelfProofread:bool" style="text;whiteSpace=wrap;html=1;fontFamily=Helvetica;fontSize=13;fontColor=default;spacingLeft=4;" parent="gI9t6yz1Oa0XXFwcf4oz-74" vertex="1">
          <mxGeometry y="284" width="290" height="30" as="geometry" />
        </mxCell>
        <mxCell id="gI9t6yz1Oa0XXFwcf4oz-82" value="ModuleQualityManagement" style="swimlane;fontStyle=0;childLayout=stackLayout;horizontal=1;startSize=26;fillColor=none;horizontalStack=0;resizeParent=1;resizeParentMax=0;resizeLast=0;collapsible=1;marginBottom=0;whiteSpace=wrap;html=1;fontSize=13;" parent="1" vertex="1">
          <mxGeometry x="-760" y="1560" width="280" height="314" as="geometry" />
        </mxCell>
        <mxCell id="gI9t6yz1Oa0XXFwcf4oz-83" value="Subclass:Feedback" style="text;strokeColor=none;fillColor=none;align=left;verticalAlign=top;spacingLeft=4;spacingRight=4;overflow=hidden;rotatable=0;points=[[0,0.5],[1,0.5]];portConstraint=eastwest;whiteSpace=wrap;html=1;fontSize=13;" parent="gI9t6yz1Oa0XXFwcf4oz-82" vertex="1">
          <mxGeometry y="26" width="280" height="26" as="geometry" />
        </mxCell>
        <mxCell id="gI9t6yz1Oa0XXFwcf4oz-84" value="+ FeedbackList:ProjectFeedback[]" style="text;strokeColor=none;fillColor=none;align=left;verticalAlign=top;spacingLeft=4;spacingRight=4;overflow=hidden;rotatable=0;points=[[0,0.5],[1,0.5]];portConstraint=eastwest;whiteSpace=wrap;html=1;fontSize=13;" parent="gI9t6yz1Oa0XXFwcf4oz-82" vertex="1">
          <mxGeometry y="52" width="280" height="26" as="geometry" />
        </mxCell>
        <mxCell id="gI9t6yz1Oa0XXFwcf4oz-85" value="Subclass:Discussion" style="text;strokeColor=none;fillColor=none;align=left;verticalAlign=top;spacingLeft=4;spacingRight=4;overflow=hidden;rotatable=0;points=[[0,0.5],[1,0.5]];portConstraint=eastwest;whiteSpace=wrap;html=1;fontSize=13;" parent="gI9t6yz1Oa0XXFwcf4oz-82" vertex="1">
          <mxGeometry y="78" width="280" height="26" as="geometry" />
        </mxCell>
        <mxCell id="gI9t6yz1Oa0XXFwcf4oz-86" value="+ DiscussionChannels:DiscussionChannel[]" style="text;whiteSpace=wrap;html=1;fontFamily=Helvetica;fontSize=13;fontColor=default;spacingLeft=4;" parent="gI9t6yz1Oa0XXFwcf4oz-82" vertex="1">
          <mxGeometry y="104" width="280" height="30" as="geometry" />
        </mxCell>
        <mxCell id="gI9t6yz1Oa0XXFwcf4oz-87" value="Subclass:Resolution" style="text;whiteSpace=wrap;html=1;fontFamily=Helvetica;fontSize=13;fontColor=default;spacingLeft=4;" parent="gI9t6yz1Oa0XXFwcf4oz-82" vertex="1">
          <mxGeometry y="134" width="280" height="30" as="geometry" />
        </mxCell>
        <mxCell id="gI9t6yz1Oa0XXFwcf4oz-88" value="+ ProjectResolutions:ProjectResolution[]" style="text;whiteSpace=wrap;html=1;fontFamily=Helvetica;fontSize=13;fontColor=default;spacingLeft=4;" parent="gI9t6yz1Oa0XXFwcf4oz-82" vertex="1">
          <mxGeometry y="164" width="280" height="30" as="geometry" />
        </mxCell>
        <mxCell id="gI9t6yz1Oa0XXFwcf4oz-89" value="Subclass:Logging" style="text;whiteSpace=wrap;html=1;fontFamily=Helvetica;fontSize=13;fontColor=default;spacingLeft=4;" parent="gI9t6yz1Oa0XXFwcf4oz-82" vertex="1">
          <mxGeometry y="194" width="280" height="30" as="geometry" />
        </mxCell>
        <mxCell id="gI9t6yz1Oa0XXFwcf4oz-90" value="+ ProjectLogs:ProjectLog[]" style="text;whiteSpace=wrap;html=1;fontFamily=Helvetica;fontSize=13;fontColor=default;spacingLeft=4;" parent="gI9t6yz1Oa0XXFwcf4oz-82" vertex="1">
          <mxGeometry y="224" width="280" height="30" as="geometry" />
        </mxCell>
        <mxCell id="gI9t6yz1Oa0XXFwcf4oz-91" value="Subclass:Standard" style="text;whiteSpace=wrap;html=1;fontFamily=Helvetica;fontSize=13;fontColor=default;spacingLeft=4;" parent="gI9t6yz1Oa0XXFwcf4oz-82" vertex="1">
          <mxGeometry y="254" width="280" height="30" as="geometry" />
        </mxCell>
        <mxCell id="gI9t6yz1Oa0XXFwcf4oz-92" value="+ StandardList:ProjectStandard[]" style="text;whiteSpace=wrap;html=1;fontFamily=Helvetica;fontSize=13;fontColor=default;spacingLeft=4;" parent="gI9t6yz1Oa0XXFwcf4oz-82" vertex="1">
          <mxGeometry y="284" width="280" height="30" as="geometry" />
        </mxCell>
        <mxCell id="GkcXhDEHEu3UvXluwhEP-223" style="edgeStyle=orthogonalEdgeStyle;rounded=0;orthogonalLoop=1;jettySize=auto;html=1;exitX=0.25;exitY=1;exitDx=0;exitDy=0;entryX=1;entryY=0;entryDx=0;entryDy=0;endArrow=diamondThin;endFill=1;fontSize=13;" parent="1" source="gI9t6yz1Oa0XXFwcf4oz-93" target="gI9t6yz1Oa0XXFwcf4oz-91" edge="1">
          <mxGeometry relative="1" as="geometry">
            <Array as="points">
              <mxPoint x="-150" y="1814" />
            </Array>
          </mxGeometry>
        </mxCell>
        <mxCell id="gI9t6yz1Oa0XXFwcf4oz-93" value="ProjectStandard" style="swimlane;fontStyle=0;childLayout=stackLayout;horizontal=1;startSize=26;fillColor=none;horizontalStack=0;resizeParent=1;resizeParentMax=0;resizeLast=0;collapsible=1;marginBottom=0;whiteSpace=wrap;html=1;fontSize=13;" parent="1" vertex="1">
          <mxGeometry x="-200" y="1560" width="200" height="194" as="geometry" />
        </mxCell>
        <mxCell id="gI9t6yz1Oa0XXFwcf4oz-94" value="+ Code:str" style="text;strokeColor=none;fillColor=none;align=left;verticalAlign=top;spacingLeft=4;spacingRight=4;overflow=hidden;rotatable=0;points=[[0,0.5],[1,0.5]];portConstraint=eastwest;whiteSpace=wrap;html=1;fontSize=13;" parent="gI9t6yz1Oa0XXFwcf4oz-93" vertex="1">
          <mxGeometry y="26" width="200" height="26" as="geometry" />
        </mxCell>
        <mxCell id="gI9t6yz1Oa0XXFwcf4oz-95" value="+ Creator:str" style="text;strokeColor=none;fillColor=none;align=left;verticalAlign=top;spacingLeft=4;spacingRight=4;overflow=hidden;rotatable=0;points=[[0,0.5],[1,0.5]];portConstraint=eastwest;whiteSpace=wrap;html=1;fontSize=13;" parent="gI9t6yz1Oa0XXFwcf4oz-93" vertex="1">
          <mxGeometry y="52" width="200" height="26" as="geometry" />
        </mxCell>
        <mxCell id="gI9t6yz1Oa0XXFwcf4oz-96" value="+ CreateDate:timestamp" style="text;strokeColor=none;fillColor=none;align=left;verticalAlign=top;spacingLeft=4;spacingRight=4;overflow=hidden;rotatable=0;points=[[0,0.5],[1,0.5]];portConstraint=eastwest;whiteSpace=wrap;html=1;fontSize=13;" parent="gI9t6yz1Oa0XXFwcf4oz-93" vertex="1">
          <mxGeometry y="78" width="200" height="26" as="geometry" />
        </mxCell>
        <mxCell id="gI9t6yz1Oa0XXFwcf4oz-98" value="+ Title:str" style="text;whiteSpace=wrap;html=1;fontFamily=Helvetica;fontSize=13;fontColor=default;spacingLeft=4;" parent="gI9t6yz1Oa0XXFwcf4oz-93" vertex="1">
          <mxGeometry y="104" width="200" height="30" as="geometry" />
        </mxCell>
        <mxCell id="gI9t6yz1Oa0XXFwcf4oz-99" value="+ ShortDesc:str" style="text;whiteSpace=wrap;html=1;fontFamily=Helvetica;fontSize=13;fontColor=default;spacingLeft=4;" parent="gI9t6yz1Oa0XXFwcf4oz-93" vertex="1">
          <mxGeometry y="134" width="200" height="30" as="geometry" />
        </mxCell>
        <mxCell id="gI9t6yz1Oa0XXFwcf4oz-97" value="+ Data:markdown" style="text;whiteSpace=wrap;html=1;fontFamily=Helvetica;fontSize=13;fontColor=default;spacingLeft=4;" parent="gI9t6yz1Oa0XXFwcf4oz-93" vertex="1">
          <mxGeometry y="164" width="200" height="30" as="geometry" />
        </mxCell>
        <mxCell id="GkcXhDEHEu3UvXluwhEP-222" style="edgeStyle=orthogonalEdgeStyle;rounded=0;orthogonalLoop=1;jettySize=auto;html=1;exitX=0.25;exitY=1;exitDx=0;exitDy=0;entryX=1;entryY=0.25;entryDx=0;entryDy=0;endArrow=diamondThin;endFill=1;fontSize=13;" parent="1" source="gI9t6yz1Oa0XXFwcf4oz-100" target="gI9t6yz1Oa0XXFwcf4oz-90" edge="1">
          <mxGeometry relative="1" as="geometry">
            <Array as="points">
              <mxPoint x="-392" y="1792" />
              <mxPoint x="-460" y="1792" />
            </Array>
          </mxGeometry>
        </mxCell>
        <mxCell id="GkcXhDEHEu3UvXluwhEP-244" style="edgeStyle=orthogonalEdgeStyle;rounded=0;orthogonalLoop=1;jettySize=auto;html=1;entryX=0.5;entryY=0;entryDx=0;entryDy=0;strokeColor=default;endArrow=none;endFill=0;startArrow=classic;startFill=1;fontSize=13;" parent="1" source="gI9t6yz1Oa0XXFwcf4oz-100" target="GkcXhDEHEu3UvXluwhEP-151" edge="1">
          <mxGeometry relative="1" as="geometry">
            <Array as="points">
              <mxPoint x="-345" y="1540" />
              <mxPoint x="400" y="1540" />
            </Array>
          </mxGeometry>
        </mxCell>
        <mxCell id="gI9t6yz1Oa0XXFwcf4oz-100" value="ProjectLog" style="swimlane;fontStyle=0;childLayout=stackLayout;horizontal=1;startSize=26;fillColor=none;horizontalStack=0;resizeParent=1;resizeParentMax=0;resizeLast=0;collapsible=1;marginBottom=0;whiteSpace=wrap;html=1;fontSize=13;" parent="1" vertex="1">
          <mxGeometry x="-440" y="1560" width="190" height="224" as="geometry" />
        </mxCell>
        <mxCell id="gI9t6yz1Oa0XXFwcf4oz-101" value="+ LogId:str" style="text;strokeColor=none;fillColor=none;align=left;verticalAlign=top;spacingLeft=4;spacingRight=4;overflow=hidden;rotatable=0;points=[[0,0.5],[1,0.5]];portConstraint=eastwest;whiteSpace=wrap;html=1;fontSize=13;" parent="gI9t6yz1Oa0XXFwcf4oz-100" vertex="1">
          <mxGeometry y="26" width="190" height="26" as="geometry" />
        </mxCell>
        <mxCell id="gI9t6yz1Oa0XXFwcf4oz-102" value="+ OperatorId:str" style="text;strokeColor=none;fillColor=none;align=left;verticalAlign=top;spacingLeft=4;spacingRight=4;overflow=hidden;rotatable=0;points=[[0,0.5],[1,0.5]];portConstraint=eastwest;whiteSpace=wrap;html=1;fontSize=13;" parent="gI9t6yz1Oa0XXFwcf4oz-100" vertex="1">
          <mxGeometry y="52" width="190" height="26" as="geometry" />
        </mxCell>
        <mxCell id="gI9t6yz1Oa0XXFwcf4oz-103" value="+ Date:timestamp" style="text;strokeColor=none;fillColor=none;align=left;verticalAlign=top;spacingLeft=4;spacingRight=4;overflow=hidden;rotatable=0;points=[[0,0.5],[1,0.5]];portConstraint=eastwest;whiteSpace=wrap;html=1;fontSize=13;" parent="gI9t6yz1Oa0XXFwcf4oz-100" vertex="1">
          <mxGeometry y="78" width="190" height="26" as="geometry" />
        </mxCell>
        <mxCell id="gI9t6yz1Oa0XXFwcf4oz-104" value="+ CreateByResolution:bool" style="text;whiteSpace=wrap;html=1;fontFamily=Helvetica;fontSize=13;fontColor=default;spacingLeft=4;" parent="gI9t6yz1Oa0XXFwcf4oz-100" vertex="1">
          <mxGeometry y="104" width="190" height="30" as="geometry" />
        </mxCell>
        <mxCell id="gI9t6yz1Oa0XXFwcf4oz-105" value="+ OperationType:enum" style="text;whiteSpace=wrap;html=1;fontFamily=Helvetica;fontSize=13;fontColor=default;spacingLeft=4;" parent="gI9t6yz1Oa0XXFwcf4oz-100" vertex="1">
          <mxGeometry y="134" width="190" height="30" as="geometry" />
        </mxCell>
        <mxCell id="gI9t6yz1Oa0XXFwcf4oz-107" value="+ OperationStatus:enum" style="text;whiteSpace=wrap;html=1;fontFamily=Helvetica;fontSize=13;fontColor=default;spacingLeft=4;" parent="gI9t6yz1Oa0XXFwcf4oz-100" vertex="1">
          <mxGeometry y="164" width="190" height="30" as="geometry" />
        </mxCell>
        <mxCell id="gI9t6yz1Oa0XXFwcf4oz-106" value="+ OperationData:json" style="text;whiteSpace=wrap;html=1;fontFamily=Helvetica;fontSize=13;fontColor=default;spacingLeft=4;" parent="gI9t6yz1Oa0XXFwcf4oz-100" vertex="1">
          <mxGeometry y="194" width="190" height="30" as="geometry" />
        </mxCell>
        <mxCell id="GkcXhDEHEu3UvXluwhEP-4" value="AbstractWorkFlowElement" style="swimlane;fontStyle=0;childLayout=stackLayout;horizontal=1;startSize=26;fillColor=none;horizontalStack=0;resizeParent=1;resizeParentMax=0;resizeLast=0;collapsible=1;marginBottom=0;whiteSpace=wrap;html=1;fontSize=13;" parent="1" vertex="1">
          <mxGeometry x="-440" y="1920" width="200" height="56" as="geometry" />
        </mxCell>
        <mxCell id="GkcXhDEHEu3UvXluwhEP-13" value="+ IsDone:bool" style="text;whiteSpace=wrap;html=1;fontFamily=Helvetica;fontSize=13;fontColor=default;spacingLeft=4;" parent="GkcXhDEHEu3UvXluwhEP-4" vertex="1">
          <mxGeometry y="26" width="200" height="30" as="geometry" />
        </mxCell>
        <mxCell id="GkcXhDEHEu3UvXluwhEP-224" style="edgeStyle=orthogonalEdgeStyle;rounded=0;orthogonalLoop=1;jettySize=auto;html=1;exitX=0.25;exitY=1;exitDx=0;exitDy=0;entryX=1;entryY=0.75;entryDx=0;entryDy=0;endArrow=diamondThin;endFill=1;fontSize=13;" parent="1" source="GkcXhDEHEu3UvXluwhEP-114" target="gI9t6yz1Oa0XXFwcf4oz-91" edge="1">
          <mxGeometry relative="1" as="geometry" />
        </mxCell>
        <mxCell id="GkcXhDEHEu3UvXluwhEP-114" value="ProjectFeedback" style="swimlane;fontStyle=0;childLayout=stackLayout;horizontal=1;startSize=26;fillColor=none;horizontalStack=0;resizeParent=1;resizeParentMax=0;resizeLast=0;collapsible=1;marginBottom=0;whiteSpace=wrap;html=1;fontSize=13;" parent="1" vertex="1">
          <mxGeometry x="40" y="1560" width="200" height="224" as="geometry" />
        </mxCell>
        <mxCell id="GkcXhDEHEu3UvXluwhEP-115" value="+ CreateDate:timestamp" style="text;strokeColor=none;fillColor=none;align=left;verticalAlign=top;spacingLeft=4;spacingRight=4;overflow=hidden;rotatable=0;points=[[0,0.5],[1,0.5]];portConstraint=eastwest;whiteSpace=wrap;html=1;fontSize=13;" parent="GkcXhDEHEu3UvXluwhEP-114" vertex="1">
          <mxGeometry y="26" width="200" height="26" as="geometry" />
        </mxCell>
        <mxCell id="GkcXhDEHEu3UvXluwhEP-116" value="+ Creator:str" style="text;strokeColor=none;fillColor=none;align=left;verticalAlign=top;spacingLeft=4;spacingRight=4;overflow=hidden;rotatable=0;points=[[0,0.5],[1,0.5]];portConstraint=eastwest;whiteSpace=wrap;html=1;fontSize=13;" parent="GkcXhDEHEu3UvXluwhEP-114" vertex="1">
          <mxGeometry y="52" width="200" height="26" as="geometry" />
        </mxCell>
        <mxCell id="GkcXhDEHEu3UvXluwhEP-117" value="+ FeedbackType:enum" style="text;strokeColor=none;fillColor=none;align=left;verticalAlign=top;spacingLeft=4;spacingRight=4;overflow=hidden;rotatable=0;points=[[0,0.5],[1,0.5]];portConstraint=eastwest;whiteSpace=wrap;html=1;fontSize=13;" parent="GkcXhDEHEu3UvXluwhEP-114" vertex="1">
          <mxGeometry y="78" width="200" height="26" as="geometry" />
        </mxCell>
        <mxCell id="GkcXhDEHEu3UvXluwhEP-118" value="+ FeedbackStatus:enum" style="text;whiteSpace=wrap;html=1;fontFamily=Helvetica;fontSize=13;fontColor=default;spacingLeft=4;" parent="GkcXhDEHEu3UvXluwhEP-114" vertex="1">
          <mxGeometry y="104" width="200" height="30" as="geometry" />
        </mxCell>
        <mxCell id="GkcXhDEHEu3UvXluwhEP-119" value="+ Pinned:bool" style="text;whiteSpace=wrap;html=1;fontFamily=Helvetica;fontSize=13;fontColor=default;spacingLeft=4;" parent="GkcXhDEHEu3UvXluwhEP-114" vertex="1">
          <mxGeometry y="134" width="200" height="30" as="geometry" />
        </mxCell>
        <mxCell id="GkcXhDEHEu3UvXluwhEP-120" value="+ Title:str" style="text;whiteSpace=wrap;html=1;fontFamily=Helvetica;fontSize=13;fontColor=default;spacingLeft=4;" parent="GkcXhDEHEu3UvXluwhEP-114" vertex="1">
          <mxGeometry y="164" width="200" height="30" as="geometry" />
        </mxCell>
        <mxCell id="GkcXhDEHEu3UvXluwhEP-121" value="+ Data:markdown" style="text;whiteSpace=wrap;html=1;fontFamily=Helvetica;fontSize=13;fontColor=default;spacingLeft=4;" parent="GkcXhDEHEu3UvXluwhEP-114" vertex="1">
          <mxGeometry y="194" width="200" height="30" as="geometry" />
        </mxCell>
        <mxCell id="GkcXhDEHEu3UvXluwhEP-122" value="AbstractDiscussionChannel" style="swimlane;fontStyle=0;childLayout=stackLayout;horizontal=1;startSize=26;fillColor=none;horizontalStack=0;resizeParent=1;resizeParentMax=0;resizeLast=0;collapsible=1;marginBottom=0;whiteSpace=wrap;html=1;fontSize=13;" parent="1" vertex="1">
          <mxGeometry x="541" y="1560" width="200" height="78" as="geometry" />
        </mxCell>
        <mxCell id="GkcXhDEHEu3UvXluwhEP-123" value="+ ChannelName:str" style="text;strokeColor=none;fillColor=none;align=left;verticalAlign=top;spacingLeft=4;spacingRight=4;overflow=hidden;rotatable=0;points=[[0,0.5],[1,0.5]];portConstraint=eastwest;whiteSpace=wrap;html=1;fontSize=13;" parent="GkcXhDEHEu3UvXluwhEP-122" vertex="1">
          <mxGeometry y="26" width="200" height="26" as="geometry" />
        </mxCell>
        <mxCell id="GkcXhDEHEu3UvXluwhEP-129" value="+ ChannelDesc:str" style="text;strokeColor=none;fillColor=none;align=left;verticalAlign=top;spacingLeft=4;spacingRight=4;overflow=hidden;rotatable=0;points=[[0,0.5],[1,0.5]];portConstraint=eastwest;whiteSpace=wrap;html=1;fontSize=13;" parent="GkcXhDEHEu3UvXluwhEP-122" vertex="1">
          <mxGeometry y="52" width="200" height="26" as="geometry" />
        </mxCell>
        <mxCell id="GkcXhDEHEu3UvXluwhEP-234" style="rounded=0;orthogonalLoop=1;jettySize=auto;html=1;exitX=0.5;exitY=0;exitDx=0;exitDy=0;endArrow=block;endFill=0;fontSize=13;" parent="1" source="GkcXhDEHEu3UvXluwhEP-130" target="GkcXhDEHEu3UvXluwhEP-122" edge="1">
          <mxGeometry relative="1" as="geometry" />
        </mxCell>
        <mxCell id="GkcXhDEHEu3UvXluwhEP-130" value="RealTimeDiscussionChannel" style="swimlane;fontStyle=0;childLayout=stackLayout;horizontal=1;startSize=26;fillColor=none;horizontalStack=0;resizeParent=1;resizeParentMax=0;resizeLast=0;collapsible=1;marginBottom=0;whiteSpace=wrap;html=1;fontSize=13;" parent="1" vertex="1">
          <mxGeometry x="540" y="1920" width="200" height="52" as="geometry" />
        </mxCell>
        <mxCell id="GkcXhDEHEu3UvXluwhEP-131" value="+ DialogRecords:json" style="text;strokeColor=none;fillColor=none;align=left;verticalAlign=top;spacingLeft=4;spacingRight=4;overflow=hidden;rotatable=0;points=[[0,0.5],[1,0.5]];portConstraint=eastwest;whiteSpace=wrap;html=1;fontSize=13;" parent="GkcXhDEHEu3UvXluwhEP-130" vertex="1">
          <mxGeometry y="26" width="200" height="26" as="geometry" />
        </mxCell>
        <mxCell id="GkcXhDEHEu3UvXluwhEP-235" style="rounded=0;orthogonalLoop=1;jettySize=auto;html=1;endArrow=block;endFill=0;fontSize=13;" parent="1" source="GkcXhDEHEu3UvXluwhEP-133" target="GkcXhDEHEu3UvXluwhEP-122" edge="1">
          <mxGeometry relative="1" as="geometry" />
        </mxCell>
        <mxCell id="GkcXhDEHEu3UvXluwhEP-133" value="PostDiscussionChannel" style="swimlane;fontStyle=0;childLayout=stackLayout;horizontal=1;startSize=26;fillColor=none;horizontalStack=0;resizeParent=1;resizeParentMax=0;resizeLast=0;collapsible=1;marginBottom=0;whiteSpace=wrap;html=1;fontSize=13;" parent="1" vertex="1">
          <mxGeometry x="530" y="1462" width="220" height="52" as="geometry" />
        </mxCell>
        <mxCell id="GkcXhDEHEu3UvXluwhEP-134" value="+ Posts:Post[]" style="text;strokeColor=none;fillColor=none;align=left;verticalAlign=top;spacingLeft=4;spacingRight=4;overflow=hidden;rotatable=0;points=[[0,0.5],[1,0.5]];portConstraint=eastwest;whiteSpace=wrap;html=1;fontSize=13;" parent="GkcXhDEHEu3UvXluwhEP-133" vertex="1">
          <mxGeometry y="26" width="220" height="26" as="geometry" />
        </mxCell>
        <mxCell id="GkcXhDEHEu3UvXluwhEP-236" style="edgeStyle=orthogonalEdgeStyle;rounded=0;orthogonalLoop=1;jettySize=auto;html=1;entryX=0.5;entryY=0;entryDx=0;entryDy=0;endArrow=diamondThin;endFill=1;fontSize=13;" parent="1" source="GkcXhDEHEu3UvXluwhEP-135" target="GkcXhDEHEu3UvXluwhEP-133" edge="1">
          <mxGeometry relative="1" as="geometry" />
        </mxCell>
        <mxCell id="GkcXhDEHEu3UvXluwhEP-135" value="Post" style="swimlane;fontStyle=0;childLayout=stackLayout;horizontal=1;startSize=26;fillColor=none;horizontalStack=0;resizeParent=1;resizeParentMax=0;resizeLast=0;collapsible=1;marginBottom=0;whiteSpace=wrap;html=1;fontSize=13;" parent="1" vertex="1">
          <mxGeometry x="530" y="1222" width="220" height="208" as="geometry" />
        </mxCell>
        <mxCell id="GkcXhDEHEu3UvXluwhEP-136" value="+ Title:str" style="text;strokeColor=none;fillColor=none;align=left;verticalAlign=top;spacingLeft=4;spacingRight=4;overflow=hidden;rotatable=0;points=[[0,0.5],[1,0.5]];portConstraint=eastwest;whiteSpace=wrap;html=1;fontSize=13;" parent="GkcXhDEHEu3UvXluwhEP-135" vertex="1">
          <mxGeometry y="26" width="220" height="26" as="geometry" />
        </mxCell>
        <mxCell id="GkcXhDEHEu3UvXluwhEP-139" value="+ Data:markdown" style="text;strokeColor=none;fillColor=none;align=left;verticalAlign=top;spacingLeft=4;spacingRight=4;overflow=hidden;rotatable=0;points=[[0,0.5],[1,0.5]];portConstraint=eastwest;whiteSpace=wrap;html=1;fontSize=13;" parent="GkcXhDEHEu3UvXluwhEP-135" vertex="1">
          <mxGeometry y="52" width="220" height="26" as="geometry" />
        </mxCell>
        <mxCell id="GkcXhDEHEu3UvXluwhEP-140" value="+ CreateBy:str" style="text;strokeColor=none;fillColor=none;align=left;verticalAlign=top;spacingLeft=4;spacingRight=4;overflow=hidden;rotatable=0;points=[[0,0.5],[1,0.5]];portConstraint=eastwest;whiteSpace=wrap;html=1;fontSize=13;" parent="GkcXhDEHEu3UvXluwhEP-135" vertex="1">
          <mxGeometry y="78" width="220" height="26" as="geometry" />
        </mxCell>
        <mxCell id="GkcXhDEHEu3UvXluwhEP-143" value="+ CreateDate:timestamp" style="text;strokeColor=none;fillColor=none;align=left;verticalAlign=top;spacingLeft=4;spacingRight=4;overflow=hidden;rotatable=0;points=[[0,0.5],[1,0.5]];portConstraint=eastwest;whiteSpace=wrap;html=1;fontSize=13;" parent="GkcXhDEHEu3UvXluwhEP-135" vertex="1">
          <mxGeometry y="104" width="220" height="26" as="geometry" />
        </mxCell>
        <mxCell id="GkcXhDEHEu3UvXluwhEP-141" value="+ Pinned:bool" style="text;strokeColor=none;fillColor=none;align=left;verticalAlign=top;spacingLeft=4;spacingRight=4;overflow=hidden;rotatable=0;points=[[0,0.5],[1,0.5]];portConstraint=eastwest;whiteSpace=wrap;html=1;fontSize=13;" parent="GkcXhDEHEu3UvXluwhEP-135" vertex="1">
          <mxGeometry y="130" width="220" height="26" as="geometry" />
        </mxCell>
        <mxCell id="GkcXhDEHEu3UvXluwhEP-144" value="+ LastEditDate:timestamp" style="text;strokeColor=none;fillColor=none;align=left;verticalAlign=top;spacingLeft=4;spacingRight=4;overflow=hidden;rotatable=0;points=[[0,0.5],[1,0.5]];portConstraint=eastwest;whiteSpace=wrap;html=1;fontSize=13;" parent="GkcXhDEHEu3UvXluwhEP-135" vertex="1">
          <mxGeometry y="156" width="220" height="26" as="geometry" />
        </mxCell>
        <mxCell id="GkcXhDEHEu3UvXluwhEP-142" value="+ Comments:Comment[]" style="text;strokeColor=none;fillColor=none;align=left;verticalAlign=top;spacingLeft=4;spacingRight=4;overflow=hidden;rotatable=0;points=[[0,0.5],[1,0.5]];portConstraint=eastwest;whiteSpace=wrap;html=1;fontSize=13;" parent="GkcXhDEHEu3UvXluwhEP-135" vertex="1">
          <mxGeometry y="182" width="220" height="26" as="geometry" />
        </mxCell>
        <mxCell id="GkcXhDEHEu3UvXluwhEP-145" value="Comment" style="swimlane;fontStyle=0;childLayout=stackLayout;horizontal=1;startSize=26;fillColor=none;horizontalStack=0;resizeParent=1;resizeParentMax=0;resizeLast=0;collapsible=1;marginBottom=0;whiteSpace=wrap;html=1;fontSize=13;" parent="1" vertex="1">
          <mxGeometry x="240" y="1222" width="220" height="104" as="geometry" />
        </mxCell>
        <mxCell id="GkcXhDEHEu3UvXluwhEP-146" value="+ Uid:str" style="text;strokeColor=none;fillColor=none;align=left;verticalAlign=top;spacingLeft=4;spacingRight=4;overflow=hidden;rotatable=0;points=[[0,0.5],[1,0.5]];portConstraint=eastwest;whiteSpace=wrap;html=1;fontSize=13;" parent="GkcXhDEHEu3UvXluwhEP-145" vertex="1">
          <mxGeometry y="26" width="220" height="26" as="geometry" />
        </mxCell>
        <mxCell id="GkcXhDEHEu3UvXluwhEP-147" value="+ Data:markdown" style="text;strokeColor=none;fillColor=none;align=left;verticalAlign=top;spacingLeft=4;spacingRight=4;overflow=hidden;rotatable=0;points=[[0,0.5],[1,0.5]];portConstraint=eastwest;whiteSpace=wrap;html=1;fontSize=13;" parent="GkcXhDEHEu3UvXluwhEP-145" vertex="1">
          <mxGeometry y="52" width="220" height="26" as="geometry" />
        </mxCell>
        <mxCell id="GkcXhDEHEu3UvXluwhEP-148" value="+ Reference:Optional&amp;lt;Comment&amp;gt;" style="text;strokeColor=none;fillColor=none;align=left;verticalAlign=top;spacingLeft=4;spacingRight=4;overflow=hidden;rotatable=0;points=[[0,0.5],[1,0.5]];portConstraint=eastwest;whiteSpace=wrap;html=1;fontSize=13;" parent="GkcXhDEHEu3UvXluwhEP-145" vertex="1">
          <mxGeometry y="78" width="220" height="26" as="geometry" />
        </mxCell>
        <mxCell id="GkcXhDEHEu3UvXluwhEP-151" value="ProjectResolution" style="swimlane;fontStyle=0;childLayout=stackLayout;horizontal=1;startSize=26;fillColor=none;horizontalStack=0;resizeParent=1;resizeParentMax=0;resizeLast=0;collapsible=1;marginBottom=0;whiteSpace=wrap;html=1;fontSize=13;" parent="1" vertex="1">
          <mxGeometry x="280" y="1560" width="240" height="314" as="geometry" />
        </mxCell>
        <mxCell id="GkcXhDEHEu3UvXluwhEP-152" value="+ Creator:str" style="text;strokeColor=none;fillColor=none;align=left;verticalAlign=top;spacingLeft=4;spacingRight=4;overflow=hidden;rotatable=0;points=[[0,0.5],[1,0.5]];portConstraint=eastwest;whiteSpace=wrap;html=1;fontSize=13;" parent="GkcXhDEHEu3UvXluwhEP-151" vertex="1">
          <mxGeometry y="26" width="240" height="26" as="geometry" />
        </mxCell>
        <mxCell id="GkcXhDEHEu3UvXluwhEP-153" value="+ CreateDate:timestamp" style="text;strokeColor=none;fillColor=none;align=left;verticalAlign=top;spacingLeft=4;spacingRight=4;overflow=hidden;rotatable=0;points=[[0,0.5],[1,0.5]];portConstraint=eastwest;whiteSpace=wrap;html=1;fontSize=13;" parent="GkcXhDEHEu3UvXluwhEP-151" vertex="1">
          <mxGeometry y="52" width="240" height="26" as="geometry" />
        </mxCell>
        <mxCell id="GkcXhDEHEu3UvXluwhEP-154" value="+ Rid:str" style="text;strokeColor=none;fillColor=none;align=left;verticalAlign=top;spacingLeft=4;spacingRight=4;overflow=hidden;rotatable=0;points=[[0,0.5],[1,0.5]];portConstraint=eastwest;whiteSpace=wrap;html=1;fontSize=13;" parent="GkcXhDEHEu3UvXluwhEP-151" vertex="1">
          <mxGeometry y="78" width="240" height="26" as="geometry" />
        </mxCell>
        <mxCell id="GkcXhDEHEu3UvXluwhEP-155" value="+ ResolutionOperation:ProjectLog[]" style="text;whiteSpace=wrap;html=1;fontFamily=Helvetica;fontSize=13;fontColor=default;spacingLeft=4;" parent="GkcXhDEHEu3UvXluwhEP-151" vertex="1">
          <mxGeometry y="104" width="240" height="30" as="geometry" />
        </mxCell>
        <mxCell id="GkcXhDEHEu3UvXluwhEP-156" value="+ VoteDesc:str[]" style="text;whiteSpace=wrap;html=1;fontFamily=Helvetica;fontSize=13;fontColor=default;spacingLeft=4;" parent="GkcXhDEHEu3UvXluwhEP-151" vertex="1">
          <mxGeometry y="134" width="240" height="30" as="geometry" />
        </mxCell>
        <mxCell id="GkcXhDEHEu3UvXluwhEP-157" value="+ VoteCount:int[]" style="text;whiteSpace=wrap;html=1;fontFamily=Helvetica;fontSize=13;fontColor=default;spacingLeft=4;" parent="GkcXhDEHEu3UvXluwhEP-151" vertex="1">
          <mxGeometry y="164" width="240" height="30" as="geometry" />
        </mxCell>
        <mxCell id="GkcXhDEHEu3UvXluwhEP-158" value="+ EndCondition:AbstractEndCondition" style="text;whiteSpace=wrap;html=1;fontFamily=Helvetica;fontSize=13;fontColor=default;spacingLeft=4;" parent="GkcXhDEHEu3UvXluwhEP-151" vertex="1">
          <mxGeometry y="194" width="240" height="30" as="geometry" />
        </mxCell>
        <mxCell id="GkcXhDEHEu3UvXluwhEP-159" value="+ ResolutionTitle:str" style="text;whiteSpace=wrap;html=1;fontFamily=Helvetica;fontSize=13;fontColor=default;spacingLeft=4;" parent="GkcXhDEHEu3UvXluwhEP-151" vertex="1">
          <mxGeometry y="224" width="240" height="30" as="geometry" />
        </mxCell>
        <mxCell id="GkcXhDEHEu3UvXluwhEP-160" value="+ ResolutionDesc:markdown" style="text;whiteSpace=wrap;html=1;fontFamily=Helvetica;fontSize=13;fontColor=default;spacingLeft=4;" parent="GkcXhDEHEu3UvXluwhEP-151" vertex="1">
          <mxGeometry y="254" width="240" height="30" as="geometry" />
        </mxCell>
        <mxCell id="GkcXhDEHEu3UvXluwhEP-161" value="+ IsEnd:bool" style="text;whiteSpace=wrap;html=1;fontFamily=Helvetica;fontSize=13;fontColor=default;spacingLeft=4;" parent="GkcXhDEHEu3UvXluwhEP-151" vertex="1">
          <mxGeometry y="284" width="240" height="30" as="geometry" />
        </mxCell>
        <mxCell id="GkcXhDEHEu3UvXluwhEP-162" value="AbstractEndCondition" style="swimlane;fontStyle=0;childLayout=stackLayout;horizontal=1;startSize=26;fillColor=none;horizontalStack=0;resizeParent=1;resizeParentMax=0;resizeLast=0;collapsible=1;marginBottom=0;whiteSpace=wrap;html=1;fontSize=13;" parent="1" vertex="1">
          <mxGeometry x="-410" y="1178" width="320" height="78" as="geometry" />
        </mxCell>
        <mxCell id="GkcXhDEHEu3UvXluwhEP-164" value="+ ComplexOperatior:enum" style="text;strokeColor=none;fillColor=none;align=left;verticalAlign=top;spacingLeft=4;spacingRight=4;overflow=hidden;rotatable=0;points=[[0,0.5],[1,0.5]];portConstraint=eastwest;whiteSpace=wrap;html=1;fontSize=13;" parent="GkcXhDEHEu3UvXluwhEP-162" vertex="1">
          <mxGeometry y="26" width="320" height="26" as="geometry" />
        </mxCell>
        <mxCell id="GkcXhDEHEu3UvXluwhEP-166" value="+ ComplexOperationTarget:AbstractEndCondition" style="text;strokeColor=none;fillColor=none;align=left;verticalAlign=top;spacingLeft=4;spacingRight=4;overflow=hidden;rotatable=0;points=[[0,0.5],[1,0.5]];portConstraint=eastwest;whiteSpace=wrap;html=1;fontSize=13;" parent="GkcXhDEHEu3UvXluwhEP-162" vertex="1">
          <mxGeometry y="52" width="320" height="26" as="geometry" />
        </mxCell>
        <mxCell id="GkcXhDEHEu3UvXluwhEP-241" style="rounded=0;orthogonalLoop=1;jettySize=auto;html=1;endArrow=block;endFill=0;fontSize=13;" parent="1" source="GkcXhDEHEu3UvXluwhEP-167" target="GkcXhDEHEu3UvXluwhEP-162" edge="1">
          <mxGeometry relative="1" as="geometry" />
        </mxCell>
        <mxCell id="GkcXhDEHEu3UvXluwhEP-167" value="EndConditionTime" style="swimlane;fontStyle=0;childLayout=stackLayout;horizontal=1;startSize=26;fillColor=none;horizontalStack=0;resizeParent=1;resizeParentMax=0;resizeLast=0;collapsible=1;marginBottom=0;whiteSpace=wrap;html=1;fontSize=13;" parent="1" vertex="1">
          <mxGeometry x="-410" y="1334" width="160" height="52" as="geometry" />
        </mxCell>
        <mxCell id="GkcXhDEHEu3UvXluwhEP-168" value="+ EndTime:timestamp" style="text;strokeColor=none;fillColor=none;align=left;verticalAlign=top;spacingLeft=4;spacingRight=4;overflow=hidden;rotatable=0;points=[[0,0.5],[1,0.5]];portConstraint=eastwest;whiteSpace=wrap;html=1;fontSize=13;" parent="GkcXhDEHEu3UvXluwhEP-167" vertex="1">
          <mxGeometry y="26" width="160" height="26" as="geometry" />
        </mxCell>
        <mxCell id="GkcXhDEHEu3UvXluwhEP-242" style="rounded=0;orthogonalLoop=1;jettySize=auto;html=1;endArrow=block;endFill=0;fontSize=13;" parent="1" source="GkcXhDEHEu3UvXluwhEP-171" target="GkcXhDEHEu3UvXluwhEP-162" edge="1">
          <mxGeometry relative="1" as="geometry" />
        </mxCell>
        <mxCell id="GkcXhDEHEu3UvXluwhEP-171" value="EndConditionCount" style="swimlane;fontStyle=0;childLayout=stackLayout;horizontal=1;startSize=26;fillColor=none;horizontalStack=0;resizeParent=1;resizeParentMax=0;resizeLast=0;collapsible=1;marginBottom=0;whiteSpace=wrap;html=1;fontSize=13;" parent="1" vertex="1">
          <mxGeometry x="-210" y="1334" width="270" height="156" as="geometry" />
        </mxCell>
        <mxCell id="GkcXhDEHEu3UvXluwhEP-179" value="+ Percent:bool" style="text;strokeColor=none;fillColor=none;align=left;verticalAlign=top;spacingLeft=4;spacingRight=4;overflow=hidden;rotatable=0;points=[[0,0.5],[1,0.5]];portConstraint=eastwest;whiteSpace=wrap;html=1;fontSize=13;" parent="GkcXhDEHEu3UvXluwhEP-171" vertex="1">
          <mxGeometry y="26" width="270" height="26" as="geometry" />
        </mxCell>
        <mxCell id="GkcXhDEHEu3UvXluwhEP-180" value="+ BeyondPercent:float" style="text;strokeColor=none;fillColor=none;align=left;verticalAlign=top;spacingLeft=4;spacingRight=4;overflow=hidden;rotatable=0;points=[[0,0.5],[1,0.5]];portConstraint=eastwest;whiteSpace=wrap;html=1;fontSize=13;" parent="GkcXhDEHEu3UvXluwhEP-171" vertex="1">
          <mxGeometry y="52" width="270" height="26" as="geometry" />
        </mxCell>
        <mxCell id="GkcXhDEHEu3UvXluwhEP-172" value="+ BeyondCount:int" style="text;strokeColor=none;fillColor=none;align=left;verticalAlign=top;spacingLeft=4;spacingRight=4;overflow=hidden;rotatable=0;points=[[0,0.5],[1,0.5]];portConstraint=eastwest;whiteSpace=wrap;html=1;fontSize=13;" parent="GkcXhDEHEu3UvXluwhEP-171" vertex="1">
          <mxGeometry y="78" width="270" height="26" as="geometry" />
        </mxCell>
        <mxCell id="GkcXhDEHEu3UvXluwhEP-173" value="+ AllCollabrator:bool" style="text;strokeColor=none;fillColor=none;align=left;verticalAlign=top;spacingLeft=4;spacingRight=4;overflow=hidden;rotatable=0;points=[[0,0.5],[1,0.5]];portConstraint=eastwest;whiteSpace=wrap;html=1;fontSize=13;" parent="GkcXhDEHEu3UvXluwhEP-171" vertex="1">
          <mxGeometry y="104" width="270" height="26" as="geometry" />
        </mxCell>
        <mxCell id="GkcXhDEHEu3UvXluwhEP-174" value="+ PermissionGroup:ProjectPermissionGroup" style="text;strokeColor=none;fillColor=none;align=left;verticalAlign=top;spacingLeft=4;spacingRight=4;overflow=hidden;rotatable=0;points=[[0,0.5],[1,0.5]];portConstraint=eastwest;whiteSpace=wrap;html=1;fontSize=13;" parent="GkcXhDEHEu3UvXluwhEP-171" vertex="1">
          <mxGeometry y="130" width="270" height="26" as="geometry" />
        </mxCell>
        <mxCell id="GkcXhDEHEu3UvXluwhEP-238" style="edgeStyle=orthogonalEdgeStyle;rounded=0;orthogonalLoop=1;jettySize=auto;html=1;endArrow=block;endFill=0;fontSize=13;" parent="1" source="GkcXhDEHEu3UvXluwhEP-181" target="GkcXhDEHEu3UvXluwhEP-4" edge="1">
          <mxGeometry relative="1" as="geometry" />
        </mxCell>
        <mxCell id="GkcXhDEHEu3UvXluwhEP-181" value="InputWorkFlowElement" style="swimlane;fontStyle=0;childLayout=stackLayout;horizontal=1;startSize=26;fillColor=none;horizontalStack=0;resizeParent=1;resizeParentMax=0;resizeLast=0;collapsible=1;marginBottom=0;whiteSpace=wrap;html=1;fontSize=13;" parent="1" vertex="1">
          <mxGeometry x="-440" y="2002" width="200" height="116" as="geometry" />
        </mxCell>
        <mxCell id="GkcXhDEHEu3UvXluwhEP-187" value="+ RequireKeys:str[]" style="text;whiteSpace=wrap;html=1;fontFamily=Helvetica;fontSize=13;fontColor=default;spacingLeft=4;" parent="GkcXhDEHEu3UvXluwhEP-181" vertex="1">
          <mxGeometry y="26" width="200" height="30" as="geometry" />
        </mxCell>
        <mxCell id="GkcXhDEHEu3UvXluwhEP-189" value="+ RequireValues:str[]" style="text;whiteSpace=wrap;html=1;fontFamily=Helvetica;fontSize=13;fontColor=default;spacingLeft=4;" parent="GkcXhDEHEu3UvXluwhEP-181" vertex="1">
          <mxGeometry y="56" width="200" height="30" as="geometry" />
        </mxCell>
        <mxCell id="GkcXhDEHEu3UvXluwhEP-182" value="+ MinimalInputCount:int" style="text;whiteSpace=wrap;html=1;fontFamily=Helvetica;fontSize=13;fontColor=default;spacingLeft=4;" parent="GkcXhDEHEu3UvXluwhEP-181" vertex="1">
          <mxGeometry y="86" width="200" height="30" as="geometry" />
        </mxCell>
        <mxCell id="GkcXhDEHEu3UvXluwhEP-239" style="rounded=0;orthogonalLoop=1;jettySize=auto;html=1;endArrow=block;endFill=0;fontSize=13;" parent="1" source="GkcXhDEHEu3UvXluwhEP-183" target="GkcXhDEHEu3UvXluwhEP-4" edge="1">
          <mxGeometry relative="1" as="geometry" />
        </mxCell>
        <mxCell id="GkcXhDEHEu3UvXluwhEP-183" value="TranslateWorkFlowElement" style="swimlane;fontStyle=0;childLayout=stackLayout;horizontal=1;startSize=26;fillColor=none;horizontalStack=0;resizeParent=1;resizeParentMax=0;resizeLast=0;collapsible=1;marginBottom=0;whiteSpace=wrap;html=1;fontSize=13;" parent="1" vertex="1">
          <mxGeometry x="-200" y="2002" width="200" height="56" as="geometry" />
        </mxCell>
        <mxCell id="GkcXhDEHEu3UvXluwhEP-184" value="+ RequireEids:str[]" style="text;whiteSpace=wrap;html=1;fontFamily=Helvetica;fontSize=13;fontColor=default;spacingLeft=4;" parent="GkcXhDEHEu3UvXluwhEP-183" vertex="1">
          <mxGeometry y="26" width="200" height="30" as="geometry" />
        </mxCell>
        <mxCell id="GkcXhDEHEu3UvXluwhEP-240" style="rounded=0;orthogonalLoop=1;jettySize=auto;html=1;exitX=0;exitY=0;exitDx=0;exitDy=0;endArrow=block;endFill=0;fontSize=13;" parent="1" source="GkcXhDEHEu3UvXluwhEP-195" edge="1">
          <mxGeometry relative="1" as="geometry">
            <mxPoint x="-240" y="1946" as="targetPoint" />
          </mxGeometry>
        </mxCell>
        <mxCell id="GkcXhDEHEu3UvXluwhEP-185" value="OutputWorkFlowElement" style="swimlane;fontStyle=0;childLayout=stackLayout;horizontal=1;startSize=26;fillColor=none;horizontalStack=0;resizeParent=1;resizeParentMax=0;resizeLast=0;collapsible=1;marginBottom=0;whiteSpace=wrap;html=1;fontSize=13;" parent="1" vertex="1">
          <mxGeometry x="40" y="1920" width="200" height="176" as="geometry" />
        </mxCell>
        <mxCell id="GkcXhDEHEu3UvXluwhEP-195" value="+ RequireValues:str[]" style="text;whiteSpace=wrap;html=1;fontFamily=Helvetica;fontSize=13;fontColor=default;spacingLeft=4;" parent="GkcXhDEHEu3UvXluwhEP-185" vertex="1">
          <mxGeometry y="26" width="200" height="30" as="geometry" />
        </mxCell>
        <mxCell id="GkcXhDEHEu3UvXluwhEP-194" value="+ RequireKeys:str[]" style="text;whiteSpace=wrap;html=1;fontFamily=Helvetica;fontSize=13;fontColor=default;spacingLeft=4;" parent="GkcXhDEHEu3UvXluwhEP-185" vertex="1">
          <mxGeometry y="56" width="200" height="30" as="geometry" />
        </mxCell>
        <mxCell id="GkcXhDEHEu3UvXluwhEP-196" value="+ MinimalOutputCount:int" style="text;whiteSpace=wrap;html=1;fontFamily=Helvetica;fontSize=13;fontColor=default;spacingLeft=4;" parent="GkcXhDEHEu3UvXluwhEP-185" vertex="1">
          <mxGeometry y="86" width="200" height="30" as="geometry" />
        </mxCell>
        <mxCell id="GkcXhDEHEu3UvXluwhEP-197" value="+ CountFileUpload:bool" style="text;whiteSpace=wrap;html=1;fontFamily=Helvetica;fontSize=13;fontColor=default;spacingLeft=4;" parent="GkcXhDEHEu3UvXluwhEP-185" vertex="1">
          <mxGeometry y="116" width="200" height="30" as="geometry" />
        </mxCell>
        <mxCell id="GkcXhDEHEu3UvXluwhEP-198" value="+ ListenFolder:folder" style="text;whiteSpace=wrap;html=1;fontFamily=Helvetica;fontSize=13;fontColor=default;spacingLeft=4;" parent="GkcXhDEHEu3UvXluwhEP-185" vertex="1">
          <mxGeometry y="146" width="200" height="30" as="geometry" />
        </mxCell>
        <mxCell id="GkcXhDEHEu3UvXluwhEP-226" style="edgeStyle=orthogonalEdgeStyle;rounded=0;orthogonalLoop=1;jettySize=auto;html=1;exitX=0;exitY=0.5;exitDx=0;exitDy=0;entryX=1;entryY=0.5;entryDx=0;entryDy=0;endArrow=diamondThin;endFill=1;fontSize=13;" parent="1" source="GkcXhDEHEu3UvXluwhEP-161" target="gI9t6yz1Oa0XXFwcf4oz-92" edge="1">
          <mxGeometry relative="1" as="geometry" />
        </mxCell>
        <mxCell id="GkcXhDEHEu3UvXluwhEP-227" style="edgeStyle=orthogonalEdgeStyle;rounded=0;orthogonalLoop=1;jettySize=auto;html=1;exitX=0.25;exitY=1;exitDx=0;exitDy=0;entryX=1;entryY=1;entryDx=0;entryDy=0;endArrow=diamondThin;endFill=1;fontSize=13;" parent="1" source="GkcXhDEHEu3UvXluwhEP-122" target="gI9t6yz1Oa0XXFwcf4oz-92" edge="1">
          <mxGeometry relative="1" as="geometry" />
        </mxCell>
        <mxCell id="GkcXhDEHEu3UvXluwhEP-230" style="edgeStyle=orthogonalEdgeStyle;rounded=0;orthogonalLoop=1;jettySize=auto;html=1;exitX=0;exitY=0.75;exitDx=0;exitDy=0;entryX=1.002;entryY=0.883;entryDx=0;entryDy=0;entryPerimeter=0;endArrow=diamondThin;endFill=1;fontSize=13;" parent="1" source="GkcXhDEHEu3UvXluwhEP-13" target="gI9t6yz1Oa0XXFwcf4oz-75" edge="1">
          <mxGeometry relative="1" as="geometry" />
        </mxCell>
        <mxCell id="GkcXhDEHEu3UvXluwhEP-232" style="edgeStyle=orthogonalEdgeStyle;rounded=0;orthogonalLoop=1;jettySize=auto;html=1;entryX=0.583;entryY=-0.004;entryDx=0;entryDy=0;entryPerimeter=0;endArrow=diamondThin;endFill=1;fontSize=13;" parent="1" source="GkcXhDEHEu3UvXluwhEP-162" target="GkcXhDEHEu3UvXluwhEP-151" edge="1">
          <mxGeometry relative="1" as="geometry">
            <Array as="points">
              <mxPoint x="100" y="1230" />
              <mxPoint x="100" y="1500" />
              <mxPoint x="420" y="1500" />
            </Array>
          </mxGeometry>
        </mxCell>
        <mxCell id="GkcXhDEHEu3UvXluwhEP-254" value="1" style="text;html=1;align=center;verticalAlign=middle;resizable=0;points=[];autosize=1;strokeColor=none;fillColor=none;fontSize=13;" parent="1" vertex="1">
          <mxGeometry x="-786" y="1754" width="30" height="30" as="geometry" />
        </mxCell>
        <mxCell id="GkcXhDEHEu3UvXluwhEP-257" value="1" style="text;html=1;align=center;verticalAlign=middle;resizable=0;points=[];autosize=1;strokeColor=none;fillColor=none;fontSize=13;" parent="1" vertex="1">
          <mxGeometry x="-790" y="2034" width="30" height="30" as="geometry" />
        </mxCell>
        <mxCell id="GkcXhDEHEu3UvXluwhEP-271" value="use" style="text;html=1;align=center;verticalAlign=middle;resizable=0;points=[];autosize=1;strokeColor=none;fillColor=none;fontSize=13;" parent="1" vertex="1">
          <mxGeometry y="1514" width="40" height="30" as="geometry" />
        </mxCell>
        <mxCell id="GkcXhDEHEu3UvXluwhEP-272" value="1" style="text;html=1;align=center;verticalAlign=middle;resizable=0;points=[];autosize=1;strokeColor=none;fillColor=none;fontSize=13;" parent="1" vertex="1">
          <mxGeometry x="-345" y="1508" width="30" height="30" as="geometry" />
        </mxCell>
        <mxCell id="GkcXhDEHEu3UvXluwhEP-273" value="0..1" style="text;html=1;align=center;verticalAlign=middle;resizable=0;points=[];autosize=1;strokeColor=none;fillColor=none;fontSize=13;" parent="1" vertex="1">
          <mxGeometry x="345" y="1508" width="50" height="30" as="geometry" />
        </mxCell>
        <mxCell id="GkcXhDEHEu3UvXluwhEP-274" value="1 0..n" style="text;whiteSpace=wrap;html=1;fontSize=13;" parent="1" vertex="1">
          <mxGeometry x="-470" y="1976" width="60" height="40" as="geometry" />
        </mxCell>
        <mxCell id="GkcXhDEHEu3UvXluwhEP-275" value="1" style="text;whiteSpace=wrap;html=1;fontSize=13;" parent="1" vertex="1">
          <mxGeometry x="570" y="1638" width="60" height="40" as="geometry" />
        </mxCell>
        <mxCell id="GkcXhDEHEu3UvXluwhEP-277" value="0..n" style="text;whiteSpace=wrap;html=1;fontSize=13;" parent="1" vertex="1">
          <mxGeometry x="610" y="1423" width="60" height="40" as="geometry" />
        </mxCell>
        <mxCell id="GkcXhDEHEu3UvXluwhEP-278" value="0..n" style="text;whiteSpace=wrap;html=1;fontSize=13;" parent="1" vertex="1">
          <mxGeometry x="460" y="1259" width="40" height="31" as="geometry" />
        </mxCell>
        <mxCell id="kD3ZypyO_LDPZ9kLoQWx-1" style="edgeStyle=orthogonalEdgeStyle;rounded=0;orthogonalLoop=1;jettySize=auto;html=1;exitX=0;exitY=0;exitDx=0;exitDy=0;entryX=0;entryY=0.5;entryDx=0;entryDy=0;endArrow=diamondThin;endFill=1;" parent="1" source="gI9t6yz1Oa0XXFwcf4oz-90" target="gI9t6yz1Oa0XXFwcf4oz-13" edge="1">
          <mxGeometry relative="1" as="geometry">
            <Array as="points">
              <mxPoint x="-780" y="1784" />
              <mxPoint x="-780" y="1417" />
            </Array>
          </mxGeometry>
        </mxCell>
        <mxCell id="kD3ZypyO_LDPZ9kLoQWx-2" style="edgeStyle=orthogonalEdgeStyle;rounded=0;orthogonalLoop=1;jettySize=auto;html=1;exitX=0;exitY=0.25;exitDx=0;exitDy=0;entryX=0;entryY=0.5;entryDx=0;entryDy=0;endArrow=diamondThin;endFill=1;" parent="1" source="gI9t6yz1Oa0XXFwcf4oz-79" target="gI9t6yz1Oa0XXFwcf4oz-14" edge="1">
          <mxGeometry relative="1" as="geometry">
            <Array as="points">
              <mxPoint x="-800" y="2062" />
              <mxPoint x="-800" y="1387" />
            </Array>
          </mxGeometry>
        </mxCell>
        <mxCell id="kD3ZypyO_LDPZ9kLoQWx-3" value="1" style="text;html=1;align=center;verticalAlign=middle;resizable=0;points=[];autosize=1;strokeColor=none;fillColor=none;fontSize=13;" parent="1" vertex="1">
          <mxGeometry x="-790" y="1360" width="30" height="30" as="geometry" />
        </mxCell>
        <mxCell id="kD3ZypyO_LDPZ9kLoQWx-4" value="1" style="text;html=1;align=center;verticalAlign=middle;resizable=0;points=[];autosize=1;strokeColor=none;fillColor=none;fontSize=13;" parent="1" vertex="1">
          <mxGeometry x="-786" y="1420" width="30" height="30" as="geometry" />
        </mxCell>
        <mxCell id="kD3ZypyO_LDPZ9kLoQWx-5" style="edgeStyle=orthogonalEdgeStyle;rounded=0;orthogonalLoop=1;jettySize=auto;html=1;exitX=1;exitY=0.5;exitDx=0;exitDy=0;entryX=0;entryY=0.5;entryDx=0;entryDy=0;endArrow=diamondThin;endFill=1;" parent="1" source="GkcXhDEHEu3UvXluwhEP-147" target="GkcXhDEHEu3UvXluwhEP-139" edge="1">
          <mxGeometry relative="1" as="geometry">
            <mxPoint x="490" y="1287" as="sourcePoint" />
          </mxGeometry>
        </mxCell>
        <mxCell id="kD3ZypyO_LDPZ9kLoQWx-6" value="1" style="text;html=1;align=center;verticalAlign=middle;resizable=0;points=[];autosize=1;strokeColor=none;fillColor=none;" parent="1" vertex="1">
          <mxGeometry x="430" y="1530" width="30" height="30" as="geometry" />
        </mxCell>
        <mxCell id="Q2eha9Hb2jrm6DGUrgiw-1" value="1" style="text;html=1;align=center;verticalAlign=middle;resizable=0;points=[];autosize=1;strokeColor=none;fillColor=none;" vertex="1" parent="1">
          <mxGeometry x="-503" y="1874" width="30" height="30" as="geometry" />
        </mxCell>
        <mxCell id="Q2eha9Hb2jrm6DGUrgiw-2" value="1" style="text;html=1;align=center;verticalAlign=middle;resizable=0;points=[];autosize=1;strokeColor=none;fillColor=none;" vertex="1" parent="1">
          <mxGeometry x="-90" y="1202" width="30" height="30" as="geometry" />
        </mxCell>
        <mxCell id="Q2eha9Hb2jrm6DGUrgiw-3" value="1" style="text;html=1;align=center;verticalAlign=middle;resizable=0;points=[];autosize=1;strokeColor=none;fillColor=none;" vertex="1" parent="1">
          <mxGeometry x="500" y="1259" width="30" height="30" as="geometry" />
        </mxCell>
        <mxCell id="Q2eha9Hb2jrm6DGUrgiw-4" value="1" style="text;html=1;align=center;verticalAlign=middle;resizable=0;points=[];autosize=1;strokeColor=none;fillColor=none;" vertex="1" parent="1">
          <mxGeometry x="640" y="1438" width="30" height="30" as="geometry" />
        </mxCell>
      </root>
    </mxGraphModel>
  </diagram>
</mxfile>
